<?xml version="1.0" encoding="UTF-8" standalone="no"?><!DOCTYPE svg PUBLIC "-//W3C//DTD SVG 1.1//EN" "http://www.w3.org/Graphics/SVG/1.1/DTD/svg11.dtd"><svg width="100%" height="100%" viewBox="0 0 98 95" version="1.1" xmlns="http://www.w3.org/2000/svg" xmlns:xlink="http://www.w3.org/1999/xlink" xml:space="preserve" xmlns:serif="http://www.serif.com/" style="fill-rule:evenodd;clip-rule:evenodd;stroke-linecap:round;stroke-miterlimit:1;"><path d="M31.104,91.104l-14.25,0l-2.25,-38.25l-11.25,0c10.453,-17.985 25.099,-37.528 45,-49.5l17.25,9l0.75,-6l12,0l3,24l12.75,20.25l-9.75,0l-2.25,40.5l-12.75,0l-0.75,-57c-10.37,10.716 -14.879,24.905 -15.75,41.25l7.5,2.25l0.75,13.5l-21,0l0,-15l6,-6l-0.75,-33l-3.75,0l-3,23.25l-1.5,-23.25l-3.75,0l-1.5,23.25l-1.5,-23.25l-3.75,0l-1.5,32.25l5.25,6.75l0.75,15Z" style="fill:none;stroke:#000;stroke-width:5px;"/></svg>